<svg id="Group_2" data-name="Group 2" xmlns="http://www.w3.org/2000/svg" width="1304" height="193" viewBox="0 0 1304 193">
  <g id="Group_75" data-name="Group 75">
    <path id="Path_7" data-name="Path 7" d="M47.443,24.939l35.39,9.847v114.17H47.443Z" transform="translate(83.708 44.044)" fill="#2ac9a2"/>
    <path id="Path_8" data-name="Path 8" d="M297.69,35.394V193h-35.4V35.394H39.581a4.176,4.176,0,0,0-4.174,4.175V193H0V35.394H31.232a4.178,4.178,0,0,0,4.174-4.175V0h226.9A35.4,35.4,0,0,1,297.69,35.394" transform="translate(0 0.004)" fill="#2ac9a2"/>
    <path id="Path_9" data-name="Path 9" d="M278.947,39.569v113.86a4.178,4.178,0,0,0,4.174,4.175H505.826V114.194H365.743V78.8H505.826a35.4,35.4,0,0,1,35.384,35.392V157.6A35.4,35.4,0,0,1,505.826,193H278.947V161.78a4.176,4.176,0,0,0-4.174-4.175H243.543V35.394h31.229a4.178,4.178,0,0,0,4.174-4.175V0H541.211V35.394H283.121a4.178,4.178,0,0,0-4.174,4.175" transform="translate(429.707 0.004)" fill="#2ac9a2"/>
    <path id="Path_10" data-name="Path 10" d="M661.7,35.392v157.6H626.318V35.392H403.593a4.176,4.176,0,0,0-4.174,4.175V192.994H364.032V35.392h31.21a4.179,4.179,0,0,0,4.177-4.175V0h226.9A35.4,35.4,0,0,1,661.7,35.392" transform="translate(642.298)" fill="#2ac9a2"/>
    <rect id="Rectangle_1" data-name="Rectangle 1" width="197.193" height="35.39" transform="translate(418.956 78.807)" fill="#2ac9a2"/>
    <path id="Path_11" data-name="Path 11" d="M158.44,39.569v113.86a4.178,4.178,0,0,0,4.174,4.175H420.724V193H158.44V161.78a4.176,4.176,0,0,0-4.174-4.175h-31.21V35.394h31.21a4.178,4.178,0,0,0,4.174-4.175V0H420.724V35.394H162.614a4.178,4.178,0,0,0-4.174,4.175" transform="translate(217.12 0.004)" fill="#2ac9a2"/>
    <path id="Path_12" data-name="Path 12" d="M527.993,21.241l24.581,24.581L442.9,155.475H392.866Z" transform="translate(693.174 37.52)" fill="#2ac9a2"/>
  </g>
</svg>
